<?xml version="1.0" standalone="no"?>
<svg xmlns="http://www.w3.org/2000/svg" version="1.1" xmlns:xlink="http://www.w3.org/1999/xlink" width="512" height="512" x="0" y="0" viewBox="0 0 512 512" style="enable-background:new 0 0 512 512" xml:space="preserve" class=""><g><path fill="#f2f2f2" d="M91.974 112.812h384.265v286.376H91.974z" opacity="1" data-original="#6ea8c8" class=""/><path fill="#fefefe" d="M488.238 156.779H76.85c-13.123 0-23.762-10.639-23.762-23.762V59.995c0-13.124 10.639-23.762 23.762-23.762h411.388c13.124 0 23.762 10.639 23.762 23.762v73.022c0 13.123-10.639 23.762-23.762 23.762z" opacity="1" data-original="#0e80ac" class=""/><path fill="#fefefe" d="M488.238 316.273H76.85c-13.123 0-23.762-10.639-23.762-23.762V219.49c0-13.124 10.639-23.762 23.762-23.762h411.388c13.124 0 23.762 10.639 23.762 23.762v73.021c0 13.123-10.639 23.762-23.762 23.762z" opacity="1" data-original="#3590bb" class=""/><path fill="#fefefe" d="M488.238 475.767H76.85c-13.123 0-23.762-10.639-23.762-23.762v-73.021c0-13.124 10.639-23.762 23.762-23.762h411.388c13.124 0 23.762 10.639 23.762 23.762v73.021c0 13.124-10.639 23.762-23.762 23.762z" opacity="1" data-original="#0e80ac" class=""/><path fill="#fefefe" d="M488.238 36.233H448.93c13.123 0 23.762 10.639 23.762 23.762v73.021c0 13.123-10.639 23.762-23.762 23.762h39.308c13.123 0 23.762-10.639 23.762-23.762V59.995c0-13.124-10.639-23.762-23.762-23.762z" opacity="1" data-original="#057195" class=""/><path fill="#fefefe" d="M488.238 195.727H448.93c13.123 0 23.762 10.639 23.762 23.762v73.022c0 13.124-10.639 23.762-23.762 23.762h39.308c13.123 0 23.762-10.639 23.762-23.762v-73.022c0-13.123-10.639-23.762-23.762-23.762z" opacity="1" data-original="#0e80ac" class=""/><path fill="#fefefe" d="M488.238 355.221H448.93c13.123 0 23.762 10.639 23.762 23.762v73.021c0 13.123-10.639 23.762-23.762 23.762h39.308c13.123 0 23.762-10.639 23.762-23.762v-73.021c0-13.123-10.639-23.762-23.762-23.762z" opacity="1" data-original="#057195" class=""/><g fill="#d8eafb"><path d="M308.057 85.175H91.974a7.726 7.726 0 1 1 0-15.452h216.083a7.726 7.726 0 1 1 0 15.452zM308.057 123.289H91.974a7.726 7.726 0 1 1 0-15.452h216.083a7.726 7.726 0 1 1 0 15.452zM308.057 245.192H91.974a7.726 7.726 0 1 1 0-15.452h216.083a7.726 7.726 0 1 1 0 15.452zM308.057 283.305H91.974a7.726 7.726 0 1 1 0-15.452h216.083a7.726 7.726 0 1 1 0 15.452z" fill="#0d0d0d" opacity="1" data-original="#d8eafb" class=""/></g><path fill="#f2541b" d="M445.594 123.536c-14.905 0-27.031-12.126-27.031-27.031s12.126-27.031 27.031-27.031 27.031 12.126 27.031 27.031c-.001 14.905-12.126 27.031-27.031 27.031z" opacity="1" data-original="#69d8e4" class=""/><path fill="#f2541b" d="M445.594 283.01c-14.905 0-27.031-12.126-27.031-27.031s12.126-27.031 27.031-27.031 27.031 12.126 27.031 27.031c-.001 14.905-12.126 27.031-27.031 27.031z" opacity="1" data-original="#fbd307" class=""/><path fill="#fa6931" d="M445.594 442.525c-14.905 0-27.031-12.126-27.031-27.031s12.126-27.031 27.031-27.031 27.031 12.126 27.031 27.031c-.001 14.905-12.126 27.031-27.031 27.031z" opacity="1" data-original="#fa6931" class=""/><path fill="#f2541b" d="M371.862 407.104c-7.902-7.902-18.332-11.725-28.688-11.491-1.292-17.155-8.476-33.949-21.595-47.068-17.775-17.775-42.293-24.673-65.319-20.736-17.016-30.391-49.519-50.938-86.826-50.938-37.712 0-70.52 20.992-87.379 51.928-29.36 7.06-51.946 31.485-56.279 61.814-5.334 2.478-10.28 6.066-14.489 10.766-15.107 16.869-15.04 42.834.144 59.633 8.892 9.838 21.028 14.741 33.164 14.738l-.01.017h304.256c33.26 0 44.436-47.249 23.021-68.663z" opacity="1" data-original="#69d8e4" class=""/><path fill="#f2541b" d="M371.862 407.104c-7.902-7.902-18.332-11.725-28.688-11.491-1.292-17.155-8.476-33.949-21.595-47.068-17.775-17.775-42.293-24.673-65.319-20.736-17.016-30.391-49.519-50.938-86.826-50.938-17.644 0-34.215 4.597-48.581 12.656 3.319-.335 6.685-.512 10.092-.512 37.307 0 69.81 20.547 86.826 50.938 23.026-3.937 47.544 2.961 65.319 20.736 13.119 13.119 20.303 29.913 21.595 47.068 10.355-.235 20.785 3.588 28.688 11.491 14.556 14.556 14.05 41.043 1.79 56.52h13.676c33.262-.001 44.438-47.25 23.023-68.664z" opacity="1" data-original="#29d0df" class=""/></g></svg>