<?xml version="1.0" standalone="no"?>
<svg xmlns="http://www.w3.org/2000/svg" version="1.1" xmlns:xlink="http://www.w3.org/1999/xlink" width="512" height="512" x="0" y="0" viewBox="0 0 512 512" style="enable-background:new 0 0 512 512" xml:space="preserve" class=""><g><path fill="#fefefe" d="m438.321 241.122-77.4 37.571L256 282.792l-108.272-1.767-74.048-39.903L256 199.442z" opacity="1" data-original="#f4aa73" class=""/><path fill="#f2541b" d="m267.642 87.648 35.183 71.288a12.982 12.982 0 0 0 9.775 7.102l78.671 11.431c10.648 1.547 14.9 14.633 7.195 22.143l-47.681 46.478-11.632 9.07a12.982 12.982 0 0 0-3.734 11.491l15.825 78.295c1.819 10.605-9.312 18.692-18.836 13.685l-70.365-36.993a12.983 12.983 0 0 0-12.082 0l-70.365 36.993c-9.524 5.007-20.655-3.08-18.836-13.685l21.546-77.865a12.983 12.983 0 0 0-3.734-11.491l-47.958-53.461c-7.705-7.51-3.453-20.596 7.195-22.143l57.413-13.34 4.182-.608a12.982 12.982 0 0 0 9.775-7.102l35.183-71.288c4.759-9.649 18.518-9.649 23.28 0z" opacity="1" data-original="#ffef92" class=""/><path fill="#f2541b" d="m332.41 358.633-70.371-37.002a13.026 13.026 0 0 0-12.077 0l-70.371 37.002c-9.519 5.003-20.653-3.085-18.836-13.69l13.437-78.348a12.982 12.982 0 0 0-3.725-11.499l-56.934-55.483c-7.703-7.51-3.451-20.602 7.195-22.144l74.491-10.829c13.498 50.165 59.309 87.096 113.736 87.096 14.726 0 28.832-2.71 41.823-7.652l-9.245 9.012a12.985 12.985 0 0 0-3.725 11.499l13.437 78.348c1.817 10.605-9.316 18.694-18.835 13.69z" opacity="1" data-original="#fee45a" class=""/><path fill="#fefefe" d="M438.321 241.122v220.896c0 4.861-3.359 9.073-8.089 10.159L256 512l-20.016-110.242L256 282.792l36.721 3.629 44.901-22.284z" opacity="1" data-original="#f4aa73" class=""/><path fill="#f2f2f2" d="M256 282.792V512l-151.874-34.713-15.224-10.066a10.424 10.424 0 0 1-8.089-10.159l-7.134-215.94 102.13 48.117z" opacity="1" data-original="#e29a6c" class=""/><path fill="#f2f2f2" d="M104.126 248.084v229.208l-22.357-5.115a10.424 10.424 0 0 1-8.089-10.159V241.122z" opacity="1" data-original="#d48c64" class=""/><path fill="#fefefe" d="m256 282.792-65.888 65.888a2.03 2.03 0 0 1-1.881.545L39.45 315.739l-23.249-8.256c-1.56-.351-2.12-2.285-.99-3.415l58.586-56.187 31.687.511z" opacity="1" data-original="#fbbd80" class=""/><path fill="#fefefe" d="m105.485 248.391-66.036 67.354-29.38-6.617c-1.553-.355-2.121-2.283-.984-3.42l64.596-64.586 25.907.516z" opacity="1" data-original="#f4aa73" class=""/><path fill="#fefefe" d="m256 282.792 65.888 65.888a2.03 2.03 0 0 0 1.881.545l178.16-40.099c1.56-.351 2.12-2.285.99-3.415l-64.598-64.589z" opacity="1" data-original="#fbbd80" class=""/><path fill="#f2541b" d="M256 46.479a7.61 7.61 0 0 1-7.611-7.611V7.611A7.61 7.61 0 0 1 256 0a7.611 7.611 0 0 1 7.612 7.611v31.256A7.611 7.611 0 0 1 256 46.479z" opacity="1" data-original="#fee45a" class=""/><path fill="#f2541b" d="M256 46.479a7.61 7.61 0 0 1-7.611-7.611V7.611A7.61 7.61 0 0 1 256 0a7.611 7.611 0 0 1 7.612 7.611v31.256A7.611 7.611 0 0 1 256 46.479zM320.184 105.334a7.578 7.578 0 0 1-4.888-1.781 7.61 7.61 0 0 1-.939-10.722l20.09-23.944a7.61 7.61 0 0 1 10.723-.939 7.61 7.61 0 0 1 .938 10.722l-20.09 23.944a7.592 7.592 0 0 1-5.834 2.72z" opacity="1" data-original="#fee45a" class=""/><path fill="#f2541b" d="M320.184 105.334a7.578 7.578 0 0 1-4.888-1.781 7.61 7.61 0 0 1-.939-10.722l20.09-23.944a7.61 7.61 0 0 1 10.723-.939 7.61 7.61 0 0 1 .938 10.722l-20.09 23.944a7.592 7.592 0 0 1-5.834 2.72zM408.698 135.965a7.61 7.61 0 0 1-4.897-13.442l23.943-20.09a7.611 7.611 0 0 1 9.785 11.661l-23.943 20.09a7.574 7.574 0 0 1-4.888 1.781z" opacity="1" data-original="#fee45a" class=""/><path fill="#f2541b" d="M408.698 135.965a7.61 7.61 0 0 1-4.897-13.442l23.943-20.09a7.611 7.611 0 0 1 9.785 11.661l-23.943 20.09a7.574 7.574 0 0 1-4.888 1.781zM191.818 105.334a7.597 7.597 0 0 1-5.835-2.719l-20.091-23.944a7.61 7.61 0 0 1 .939-10.723 7.61 7.61 0 0 1 10.723.938l20.091 23.944a7.61 7.61 0 0 1-.939 10.723 7.578 7.578 0 0 1-4.888 1.781z" opacity="1" data-original="#fee45a" class=""/><path fill="#f2541b" d="M191.818 105.334a7.597 7.597 0 0 1-5.835-2.719l-20.091-23.944a7.61 7.61 0 0 1 .939-10.723 7.61 7.61 0 0 1 10.723.938l20.091 23.944a7.61 7.61 0 0 1-.939 10.723 7.578 7.578 0 0 1-4.888 1.781zM103.303 135.965a7.578 7.578 0 0 1-4.888-1.781l-23.944-20.09a7.61 7.61 0 1 1 9.784-11.661l23.944 20.09a7.611 7.611 0 0 1-4.896 13.442z" opacity="1" data-original="#fee45a" class=""/><path fill="#f2541b" d="M103.303 135.965a7.578 7.578 0 0 1-4.888-1.781l-23.944-20.09a7.61 7.61 0 1 1 9.784-11.661l23.944 20.09a7.611 7.611 0 0 1-4.896 13.442z" opacity="1" data-original="#fee45a" class=""/></g></svg>