<?xml version="1.0" standalone="no"?>
<svg xmlns="http://www.w3.org/2000/svg" version="1.1" xmlns:xlink="http://www.w3.org/1999/xlink" width="512" height="512" x="0" y="0" viewBox="0 0 512 512" style="enable-background:new 0 0 512 512" xml:space="preserve" class=""><g><path fill="#f2f2f2" d="M452.533 268.207 266.607 82.28c-5.855-5.858-15.354-5.858-21.213 0L59.467 268.205a15.001 15.001 0 0 0-4.394 10.606v178.022c0 30.419 24.748 55.166 55.167 55.166h97.561c8.284 0 15-6.716 15-15V383.466h66.4V497c0 8.284 6.716 15 15 15h97.56c30.419 0 55.166-24.747 55.166-55.166V278.813c0-3.979-1.58-7.794-4.394-10.606z" opacity="1" data-original="#e7f0ef" class=""/><path fill="#f8f8f8" d="M452.533 268.207 266.607 82.28a14.948 14.948 0 0 0-10.606-4.394v305.579h33.2V497c0 8.284 6.716 15 15 15h97.56c30.419 0 55.166-24.747 55.166-55.166V278.813c0-3.979-1.58-7.794-4.394-10.606z" opacity="1" data-original="#c5e1e6" class=""/><path fill="#f8f8f8" d="M425.86 0h-64.267c-8.284 0-15 6.716-15 15v92.229c0 3.979 1.58 7.794 4.394 10.606l64.267 64.266a14.996 14.996 0 0 0 16.346 3.252 15.001 15.001 0 0 0 9.26-13.858V15c0-8.284-6.715-15-15-15z" opacity="1" data-original="#b24d00" class=""/><path fill="#f2541b" d="M498.158 222.579 289.42 13.842C280.493 4.916 268.625 0 256.001 0c-12.625 0-24.494 4.916-33.42 13.842L13.843 222.582c-18.428 18.426-18.428 48.41 0 66.837 8.927 8.927 20.795 13.843 33.419 13.843 12.625 0 24.493-4.917 33.418-13.844L256.001 114.1 431.32 289.419c8.926 8.926 20.793 13.842 33.416 13.843h.003c12.622 0 24.49-4.916 33.419-13.844 18.428-18.428 18.428-48.411 0-66.839z" opacity="1" data-original="#ff9f00" class=""/><path fill="#f2541b" d="M498.158 222.579 289.42 13.842C280.493 4.916 268.625 0 256.001 0v114.1L431.32 289.419c8.926 8.926 20.793 13.842 33.416 13.843h.003c12.622 0 24.49-4.916 33.419-13.844 18.428-18.428 18.428-48.411 0-66.839z" opacity="1" data-original="#ff641a" class=""/></g></svg>