<?xml version="1.0" standalone="no"?>
<svg xmlns="http://www.w3.org/2000/svg" version="1.1" xmlns:xlink="http://www.w3.org/1999/xlink" width="512" height="512" x="0" y="0" viewBox="0 0 24 24" style="enable-background:new 0 0 512 512" xml:space="preserve" class=""><g><path d="M7.123 1.611a.989.989 0 0 0-.988.49L2.072 9.065a1.002 1.002 0 0 0 .87 1.504l8.062-.035c.881-.003 1.328-1.064.715-1.697l-.89-.92c-.193-.199-.146-.456.113-.55A5.953 5.953 0 0 1 13 7c3.337 0 6 2.663 6 6s-2.663 6-6 6a5.98 5.98 0 0 1-5.148-2.918 2 2 0 0 0-3.43 2.06A10.01 10.01 0 0 0 13 23c5.5 0 10-4.5 10-10S18.5 3 13 3a9.931 9.931 0 0 0-4.082.88c-.252.113-.513 0-.589-.265l-.368-1.287a.988.988 0 0 0-.838-.717z" paint-order="fill markers stroke" fill="#343435" opacity="1" data-original="#000000" class=""/></g></svg>